<?xml version="1.0" encoding="UTF-8"?>
<svg version="1.1" xmlns="http://www.w3.org/2000/svg" width="1024" height="1024">
<path d="M0 0 C337.92 0 675.84 0 1024 0 C1024 337.92 1024 675.84 1024 1024 C686.08 1024 348.16 1024 0 1024 C0 686.08 0 348.16 0 0 Z " fill="#F9F7F4" transform="translate(0,0)"/>
<path d="M0 0 C46.53 0 93.06 0 141 0 C141 45.87 141 91.74 141 139 C94.47 139 47.94 139 0 139 C0 93.13 0 47.26 0 0 Z " fill="#909396" transform="translate(676,651)"/>
<path d="M0 0 C46.2 0 92.4 0 140 0 C140 45.87 140 91.74 140 139 C93.8 139 47.6 139 0 139 C0 93.13 0 47.26 0 0 Z " fill="#909295" transform="translate(520,651)"/>
<path d="M0 0 C46.2 0 92.4 0 140 0 C140 45.87 140 91.74 140 139 C93.8 139 47.6 139 0 139 C0 93.13 0 47.26 0 0 Z " fill="#5F96BE" transform="translate(364,651)"/>
<path d="M0 0 C46.2 0 92.4 0 140 0 C140 45.87 140 91.74 140 139 C93.8 139 47.6 139 0 139 C0 93.13 0 47.26 0 0 Z " fill="#387FB3" transform="translate(208,651)"/>
<path d="M0 0 C46.53 0 93.06 0 141 0 C141 45.54 141 91.08 141 138 C94.47 138 47.94 138 0 138 C0 92.46 0 46.92 0 0 Z " fill="#909395" transform="translate(676,496)"/>
<path d="M0 0 C46.53 0 93.06 0 141 0 C141 45.54 141 91.08 141 138 C94.47 138 47.94 138 0 138 C0 92.46 0 46.92 0 0 Z " fill="#909396" transform="translate(676,341)"/>
<path d="M0 0 C46.53 0 93.06 0 141 0 C141 45.54 141 91.08 141 138 C94.47 138 47.94 138 0 138 C0 92.46 0 46.92 0 0 Z " fill="#909396" transform="translate(676,187)"/>
<path d="M0 0 C46.2 0 92.4 0 140 0 C140 45.54 140 91.08 140 138 C93.8 138 47.6 138 0 138 C0 92.46 0 46.92 0 0 Z " fill="#909295" transform="translate(520,496)"/>
<path d="M0 0 C46.2 0 92.4 0 140 0 C140 45.54 140 91.08 140 138 C93.8 138 47.6 138 0 138 C0 92.46 0 46.92 0 0 Z " fill="#5F96BE" transform="translate(364,496)"/>
<path d="M0 0 C46.2 0 92.4 0 140 0 C140 45.54 140 91.08 140 138 C93.8 138 47.6 138 0 138 C0 92.46 0 46.92 0 0 Z " fill="#387FB3" transform="translate(208,496)"/>
<path d="M0 0 C46.2 0 92.4 0 140 0 C140 45.54 140 91.08 140 138 C93.8 138 47.6 138 0 138 C0 92.46 0 46.92 0 0 Z " fill="#387FB3" transform="translate(208,341)"/>
<path d="M0 0 C46.2 0 92.4 0 140 0 C140 45.54 140 91.08 140 138 C93.8 138 47.6 138 0 138 C0 92.46 0 46.92 0 0 Z " fill="#6197BF" transform="translate(520,341)"/>
<path d="M0 0 C46.2 0 92.4 0 140 0 C140 45.54 140 91.08 140 138 C93.8 138 47.6 138 0 138 C0 92.46 0 46.92 0 0 Z " fill="#5F96BE" transform="translate(364,341)"/>
<path d="M0 0 C46.2 0 92.4 0 140 0 C140 45.54 140 91.08 140 138 C93.8 138 47.6 138 0 138 C0 92.46 0 46.92 0 0 Z " fill="#387FB3" transform="translate(208,187)"/>
<path d="M0 0 C46.2 0 92.4 0 140 0 C140 45.54 140 91.08 140 138 C93.8 138 47.6 138 0 138 C0 92.46 0 46.92 0 0 Z " fill="#6197BF" transform="translate(520,187)"/>
<path d="M0 0 C46.2 0 92.4 0 140 0 C140 45.54 140 91.08 140 138 C93.8 138 47.6 138 0 138 C0 92.46 0 46.92 0 0 Z " fill="#5F97BE" transform="translate(364,187)"/>
<path d="M0 0 C46.2 0 92.4 0 140 0 C140 45.54 140 91.08 140 138 C93.8 138 47.6 138 0 138 C0 92.46 0 46.92 0 0 Z M1 2 C1 46.55 1 91.1 1 137 C46.21 137 91.42 137 138 137 C138 92.45 138 47.9 138 2 C92.79 2 47.58 2 1 2 Z " fill="#4588B7" transform="translate(520,341)"/>
<path d="M0 0 C46.2 0 92.4 0 140 0 C140 45.54 140 91.08 140 138 C93.8 138 47.6 138 0 138 C0 92.46 0 46.92 0 0 Z M1 1 C1 45.55 1 90.1 1 136 C46.21 136 91.42 136 138 136 C138 91.45 138 46.9 138 1 C92.79 1 47.58 1 1 1 Z " fill="#4689B7" transform="translate(520,187)"/>
</svg>
